<svg width="512" height="512" viewBox="0 0 512 512" fill="none" xmlns="http://www.w3.org/2000/svg">
<path fill-rule="evenodd" clip-rule="evenodd" d="M128 24C70.5624 24 24 70.5624 24 128V384C24 441.438 70.5624 488 128 488H384C441.438 488 488 441.438 488 384V128C488 70.5624 441.438 24 384 24H128ZM40 128C40 79.3989 79.3989 40 128 40H384C432.601 40 472 79.3989 472 128V384C472 432.601 432.601 472 384 472H128C79.3989 472 40 432.601 40 384V128ZM160 100C144.536 100 132 112.536 132 128C132 143.464 144.536 156 160 156H228V384C228 399.464 240.536 412 256 412C271.464 412 284 399.464 284 384V156H352C367.464 156 380 143.464 380 128C380 112.536 367.464 100 352 100H160ZM148 128C148 121.373 153.373 116 160 116H352C358.627 116 364 121.373 364 128C364 134.627 358.627 140 352 140H276C271.582 140 268 143.582 268 148V384C268 390.627 262.627 396 256 396C249.373 396 244 390.627 244 384V148C244 143.582 240.418 140 236 140H160C153.373 140 148 134.627 148 128Z" fill="url(#paint0_linear)" id="id_101"></path>
<defs>
<linearGradient id="paint0_linear" x1="64" y1="64" x2="448" y2="448" gradientUnits="userSpaceOnUse">
<stop stop-color="#c44fdb" id="id_102"></stop>
<stop offset="1" stop-color="#4fdb74" id="id_103"></stop>
</linearGradient>
</defs>
</svg>